<svg width="30" height="30" viewBox="0 0 30 30" fill="none" xmlns="http://www.w3.org/2000/svg">
<path fill-rule="evenodd" clip-rule="evenodd" d="M5 15L13.9412 7H19.5294L12.8235 13H24V17H12.8235L19.5294 23H13.9412L5 15Z" fill="white"/>
<path d="M15 0C11.0218 0 7.20644 1.58035 4.3934 4.3934C1.58035 7.20644 0 11.0218 0 15C0 18.9782 1.58035 22.7936 4.3934 25.6066C7.20644 28.4196 11.0218 30 15 30C18.9782 30 22.7936 28.4196 25.6066 25.6066C28.4196 22.7936 30 18.9782 30 15C30 11.0218 28.4196 7.20644 25.6066 4.3934C22.7936 1.58035 18.9782 0 15 0ZM15 2.14286C18.4099 2.14286 21.6802 3.49744 24.0914 5.90863C26.5026 8.31981 27.8571 11.5901 27.8571 15C27.8571 18.4099 26.5026 21.6802 24.0914 24.0914C21.6802 26.5026 18.4099 27.8571 15 27.8571C11.5901 27.8571 8.31981 26.5026 5.90863 24.0914C3.49744 21.6802 2.14286 18.4099 2.14286 15C2.14286 11.5901 3.49744 8.31981 5.90863 5.90863C8.31981 3.49744 11.5901 2.14286 15 2.14286Z" fill="white"/>
</svg>
