<svg width="23" height="23" viewBox="0 0 23 23" fill="none" xmlns="http://www.w3.org/2000/svg">
<path fill-rule="evenodd" clip-rule="evenodd" d="M3.7375 9.75932V7.48193C3.7375 3.34978 7.21289 0 11.5 0C15.7871 0 19.2625 3.34978 19.2625 7.48193V9.75932C20.5445 9.85165 21.3793 10.0845 21.9895 10.6728C23 11.6468 23 13.2143 23 16.3494C23 19.4845 23 21.052 21.9895 22.026C20.979 23 19.3527 23 16.1 23H6.9C3.64731 23 2.02096 23 1.01048 22.026C0 21.052 0 19.4845 0 16.3494C0 13.2143 0 11.6468 1.01048 10.6728C1.62071 10.0845 2.45554 9.85165 3.7375 9.75932ZM5.4625 7.48193C5.4625 4.26804 8.16559 1.66265 11.5 1.66265C14.8344 1.66265 17.5375 4.26804 17.5375 7.48193V9.70279C17.097 9.6988 16.6192 9.6988 16.1 9.6988H6.9C6.38076 9.6988 5.90296 9.6988 5.4625 9.70279V7.48193ZM13.8 16.3494C13.8 17.5738 12.7703 18.5663 11.5 18.5663C10.2297 18.5663 9.2 17.5738 9.2 16.3494C9.2 15.125 10.2297 14.1325 11.5 14.1325C12.7703 14.1325 13.8 15.125 13.8 16.3494Z" fill="#007BFF"/>
</svg>
