<svg width="20" height="33" viewBox="0 0 20 33" fill="none" xmlns="http://www.w3.org/2000/svg">
<path fill-rule="evenodd" clip-rule="evenodd" d="M18.5829 6.65489C19.3675 6.6582 20.0028 7.40041 20 8.31285L19.8991 29.7039C19.8948 31.5288 18.6184 33.0049 17.0478 33L2.83422 32.9619C1.26504 32.957 -0.00425215 31.4726 1.07061e-05 29.6477L0.113732 3.29769C0.117996 1.47116 1.39437 -0.00494743 2.96355 1.24629e-05L11.4917 0.0247866C13.0623 0.0297449 14.3316 1.5141 14.3273 3.33898L14.2293 23.0771C14.225 24.9037 12.9486 26.3798 11.3794 26.3748L8.53671 26.3649C6.9661 26.36 5.69684 24.8756 5.7011 23.049L5.78638 8.26985C5.78922 7.3574 6.42741 6.62021 7.212 6.62186C7.99659 6.62517 8.63195 7.36737 8.62911 8.27982L8.54808 21.406C8.54666 22.3184 9.18058 23.0606 9.96517 23.0639C10.7512 23.0656 11.3894 22.3284 11.3908 21.416L11.4803 4.98375C11.4818 4.0713 10.8478 3.32744 10.0618 3.32579L4.37782 3.31089C3.59181 3.30923 2.95361 4.04653 2.95219 4.95897L2.84701 27.9964C2.84417 28.9138 3.48235 29.6594 4.26979 29.661L15.6293 29.6891C16.4167 29.6924 17.0578 28.9502 17.0606 28.0345L17.1573 8.30288C17.1601 7.39044 17.7983 6.65159 18.5829 6.65489Z" fill="#B5AAAA"/>
</svg>
