<svg width="387" height="454" viewBox="0 0 387 454" fill="none" xmlns="http://www.w3.org/2000/svg">
<rect y="86" width="387" height="275" fill="url(#paint0_linear_47_24)"/>
<path opacity="0.36" d="M337.363 345.113C331.092 344.777 324.99 344.329 319.055 343.77C313.232 343.098 307.913 342.202 303.098 341.082C298.283 339.962 294.195 338.507 290.836 336.715C287.589 334.811 285.461 332.46 284.453 329.66L191.566 100.215C189.663 100.327 187.815 101.111 186.023 102.566C185.24 116.452 180.984 127.594 173.258 135.992L177.121 145.902L106.238 324.117C101.759 335.315 87.9857 342.314 64.918 345.113C64.2461 346.681 63.9102 348.081 63.9102 349.312C63.9102 350.656 64.2461 352 64.918 353.344C77.6836 352.896 87.9297 352.56 95.6562 352.336C103.495 352.112 108.87 352 111.781 352C114.357 352 120.18 352.112 129.25 352.336C138.432 352.56 150.862 352.896 166.539 353.344C167.211 352 167.547 350.656 167.547 349.312C167.547 348.081 167.211 346.681 166.539 345.113C157.245 344.217 149.686 343.266 143.863 342.258C138.04 341.138 133.505 339.962 130.258 338.73C127.01 337.499 124.827 336.155 123.707 334.699C122.587 333.132 122.027 331.396 122.027 329.492C122.027 328.26 122.251 327.029 122.699 325.797L147.223 264.32C159.652 264.096 169.674 263.928 177.289 263.816C185.016 263.704 190.335 263.648 193.246 263.648C199.629 263.648 205.284 263.704 210.211 263.816C215.25 263.816 219.561 263.872 223.145 263.984L247.5 325.797C248.06 327.477 248.34 328.764 248.34 329.66C248.34 332.684 246.772 335.371 243.637 337.723C240.613 340.074 236.862 341.698 232.383 342.594L214.242 345.113C213.57 346.681 213.234 348.081 213.234 349.312C213.234 350.656 213.57 352 214.242 353.344C223.76 353.008 233.391 352.728 243.133 352.504C252.987 352.28 263.065 352.168 273.367 352.168C283.669 352.168 294.083 352.28 304.609 352.504C315.247 352.728 326.165 353.008 337.363 353.344C338.147 351.776 338.539 350.432 338.539 349.312C338.539 348.641 338.427 347.969 338.203 347.297C337.979 346.625 337.699 345.897 337.363 345.113ZM193.246 250.547C177.009 250.547 163.628 250.323 153.102 249.875L185.016 167.57H185.688L217.77 250.211C211.723 250.435 203.548 250.547 193.246 250.547ZM185.352 185.207L163.012 243.324C176.561 243.996 191.454 244.108 207.691 243.66L185.352 185.207ZM342.57 338.898C345.37 345.617 345.258 352.728 342.234 360.23H209.035C206.348 352.504 206.348 345.393 209.035 338.898C221.241 338.227 229.863 336.995 234.902 335.203C239.941 333.299 241.677 330.276 240.109 326.133L218.105 270.535C197.389 269.751 175.217 269.975 151.59 271.207L129.922 326.805C129.25 328.708 129.754 330.444 131.434 332.012C133.225 333.467 136.081 334.643 140 335.539C143.919 336.435 148.51 337.163 153.773 337.723C159.036 338.283 164.971 338.674 171.578 338.898C174.378 345.617 174.266 352.728 171.242 360.23C134.513 358.887 97.5039 358.887 60.2148 360.23C57.1914 352.728 57.0794 345.617 59.8789 338.898C82.9466 336.211 95.9922 331.172 99.0156 323.781L169.898 145.566C169.451 144.671 168.555 142.655 167.211 139.52C165.979 136.272 165.251 134.145 165.027 133.137C173.762 124.29 178.577 112.868 179.473 98.8711C189.327 94.056 200.917 91.3125 214.242 90.6406L308.473 324.453C310.6 329.716 313.96 333.243 318.551 335.035C323.142 336.715 331.148 338.003 342.57 338.898Z" fill="black"/>
<defs>
<linearGradient id="paint0_linear_47_24" x1="-3.50001" y1="86" x2="385.5" y2="359.5" gradientUnits="userSpaceOnUse">
<stop stop-color="#0075D4"/>
<stop offset="1" stop-color="#005499"/>
</linearGradient>
</defs>
</svg>
